<svg width="46" height="49" viewBox="0 0 46 49" fill="none" xmlns="http://www.w3.org/2000/svg">
<ellipse cx="22.9318" cy="24.5" rx="22.4016" ry="24.5" fill="#078BFF"/>
<path d="M14.2178 36.3052C12.5658 36.3052 11.2149 35.8983 10.1651 35.0845C9.12339 34.2625 8.60255 33.0052 8.60255 31.3125V28.1143H13.0703V29.9575C13.0703 30.34 13.0907 30.7103 13.1314 31.0684C13.1802 31.4264 13.286 31.7194 13.4487 31.9473C13.6115 32.1751 13.8679 32.2891 14.2178 32.2891C14.6817 32.2891 14.9868 32.1344 15.1333 31.8252C15.2798 31.5078 15.353 31.105 15.353 30.6167V26.3931C15.353 26.0431 15.3286 25.6973 15.2798 25.3555C15.2391 25.0137 15.1415 24.7288 14.9868 24.501C14.8322 24.2731 14.584 24.1592 14.2422 24.1592C13.4284 24.1592 13.0215 24.7492 13.0215 25.9292H9.07863V14.5034H19.3203V18.5317H13.1558V21.5591C13.3674 21.2987 13.6522 21.0708 14.0103 20.8755C14.3765 20.672 14.8037 20.5703 15.292 20.5703C16.2686 20.5703 17.062 20.7575 17.6724 21.1318C18.2909 21.5062 18.7629 22.027 19.0884 22.6943C19.4221 23.3617 19.6499 24.1348 19.772 25.0137C19.9022 25.8926 19.9673 26.8366 19.9673 27.8457C19.9673 29.1396 19.8981 30.3075 19.7598 31.3491C19.6296 32.3826 19.3651 33.2697 18.9663 34.0103C18.5757 34.7508 17.9979 35.3205 17.2329 35.7192C16.4761 36.1099 15.471 36.3052 14.2178 36.3052ZM26.5713 36.1953C24.7565 36.1953 23.3527 35.6867 22.3599 34.6694C21.3752 33.6522 20.8828 32.1873 20.8828 30.2749V20.5825C20.8828 18.5643 21.3508 17.0181 22.2866 15.9438C23.2306 14.8615 24.6589 14.3203 26.5713 14.3203C28.4919 14.3203 29.9201 14.8615 30.856 15.9438C31.7918 17.0181 32.2598 18.5643 32.2598 20.5825V30.2749C32.2598 32.1873 31.7674 33.6522 30.7827 34.6694C29.798 35.6867 28.3942 36.1953 26.5713 36.1953ZM26.5713 32.2402C26.905 32.2402 27.1654 32.0897 27.3526 31.7886C27.5397 31.4875 27.6333 31.1497 27.6333 30.7754V20.1675C27.6333 19.6629 27.5763 19.2235 27.4624 18.8491C27.3566 18.4666 27.0596 18.2754 26.5713 18.2754C26.083 18.2754 25.7819 18.4666 25.668 18.8491C25.5622 19.2235 25.5093 19.6629 25.5093 20.1675V30.7754C25.5093 31.1497 25.6029 31.4875 25.7901 31.7886C25.9854 32.0897 26.2458 32.2402 26.5713 32.2402ZM35.7754 32.3257V29.7866H33.2363V26.9546H35.7754V24.4155H38.6074V26.9546H41.1465V29.7866H38.6074V32.3257H35.7754Z" fill="#2D2D34"/>
</svg>
