<svg width="45" height="49" viewBox="0 0 45 49" fill="none" xmlns="http://www.w3.org/2000/svg">
<path d="M24.8316 40.0623C24.8316 37.3552 24.849 34.6448 24.8142 31.9345C24.8142 31.3943 24.9477 31.1242 25.4095 30.87C28.1335 29.3894 29.4867 26.1389 28.7782 22.8884C28.116 19.7999 25.4908 17.5598 22.5374 17.5598C19.5985 17.5598 17.0052 19.819 16.2966 23.0155C15.62 26.1007 17.0052 29.3894 19.6624 30.851C20.1909 31.1401 20.3245 31.4483 20.3245 32.0425C20.3071 37.3551 20.3071 42.6455 20.3071 47.955C20.3071 49.0925 20.3071 49.0925 19.2994 48.9114C11.8535 47.5928 6.29223 43.2779 2.75803 36.0175C-4.40622 21.2997 3.89641 3.02314 18.8725 0.331862C30.84 -1.83514 42.2151 6.83286 44.5267 19.8349C46.969 33.5264 38.5996 46.6713 26.0368 48.8924C24.8316 49.0925 24.8316 49.0925 24.8316 47.7548V40.0623Z" fill="#00B6EF"/>
</svg>
